<svg width="69.70625px" height="62px" xmlns="http://www.w3.org/2000/svg" viewBox="215.146875 44 69.70625 62" style="background: none;" preserveAspectRatio="xMidYMid"><defs><linearGradient id="editing-glowing-gradient" x1="0.06269014643030213" x2="0.9373098535696979" y1="0.2575951898768315" y2="0.7424048101231685"><stop offset="0" stop-color="#f5f4fa"></stop><stop offset="1" stop-color="#f5f4fa"></stop></linearGradient><filter id="editing-glowing" x="-100%" y="-100%" width="300%" height="300%"><feGaussianBlur in="SourceGraphic" result="blur" stdDeviation="1"></feGaussianBlur><feMerge><feMergeNode in="blur"></feMergeNode><feMergeNode in="SourceGraphic"></feMergeNode></feMerge></filter></defs><g filter="url(#editing-glowing)"><g transform="translate(231.59500420093536, 84.37499904632568)"><path d="M12.45-4.80L12.45-4.80L12.90-5.13L12.90-5.13Q13.75-5.63 14.10-5.63L14.10-5.63L14.10-5.63Q14.88-5.63 15.78-4.23L15.78-4.23L15.78-4.23Q16.32-3.35 16.32-2.83L16.32-2.83L16.32-2.83Q16.32-2.30 15.99-1.95L15.99-1.95L15.99-1.95Q15.65-1.60 15.20-1.33L15.20-1.33L15.20-1.33Q14.75-1.05 14.34-0.80L14.34-0.80L14.34-0.80Q13.93-0.55 12.65-0.15L12.65-0.15L12.65-0.15Q11.38 0.25 10.19 0.25L10.19 0.25L10.19 0.25Q9 0.25 7.79-0.06L7.79-0.06L7.79-0.06Q6.58-0.38 5.29-1.11L5.29-1.11L5.29-1.11Q4-1.85 2.98-2.91L2.98-2.91L2.98-2.91Q1.95-3.98 1.29-5.64L1.29-5.64L1.29-5.64Q0.63-7.30 0.63-9.25L0.63-9.25L0.63-9.25Q0.63-11.20 1.28-12.79L1.28-12.79L1.28-12.79Q1.93-14.38 2.94-15.41L2.94-15.41L2.94-15.41Q3.95-16.45 5.25-17.15L5.25-17.15L5.25-17.15Q7.70-18.50 10.18-18.50L10.18-18.50L10.18-18.50Q11.35-18.50 12.56-18.14L12.56-18.14L12.56-18.14Q13.78-17.78 14.40-17.40L14.40-17.40L15-17.05L15-17.05Q15.45-16.78 15.70-16.60L15.70-16.60L15.70-16.60Q16.35-16.07 16.35-15.41L16.35-15.41L16.35-15.41Q16.35-14.75 15.83-14.03L15.83-14.03L15.83-14.03Q14.85-12.68 14.08-12.68L14.08-12.68L14.08-12.68Q13.63-12.68 12.80-13.23L12.80-13.23L12.80-13.23Q11.75-14.08 10-14.08L10-14.08L10-14.08Q8.38-14.08 6.80-12.95L6.80-12.95L6.80-12.95Q6.05-12.40 5.55-11.40L5.55-11.40L5.55-11.40Q5.05-10.40 5.05-9.14L5.05-9.14L5.05-9.14Q5.05-7.88 5.55-6.88L5.55-6.88L5.55-6.88Q6.05-5.88 6.83-5.30L6.83-5.30L6.83-5.30Q8.35-4.20 10-4.20L10-4.20L10-4.20Q10.78-4.20 11.46-4.40L11.46-4.40L11.46-4.40Q12.15-4.60 12.45-4.80ZM34.70-18.05L34.70-18.05L34.70-18.05Q36.18-17.32 36.18-16.45L36.18-16.45L36.18-16.45Q36.18-16.05 35.80-15.25L35.80-15.25L28.90-1.25L28.90-1.25Q28.63-0.70 28.06-0.36L28.06-0.36L28.06-0.36Q27.50-0.03 26.90-0.03L26.90-0.03L26.65-0.03L26.65-0.03Q26.03-0.03 25.46-0.36L25.46-0.36L25.46-0.36Q24.90-0.70 24.63-1.25L24.63-1.25L17.73-15.25L17.73-15.25Q17.35-16.05 17.35-16.45L17.35-16.45L17.35-16.45Q17.35-17.32 18.83-18.05L18.83-18.05L18.83-18.05Q19.65-18.48 20.09-18.48L20.09-18.48L20.09-18.48Q20.53-18.48 20.75-18.38L20.75-18.38L20.75-18.38Q20.98-18.28 21.18-18.03L21.18-18.03L21.18-18.03Q21.40-17.73 21.59-17.36L21.59-17.36L21.59-17.36Q21.78-17 22.55-15.29L22.55-15.29L22.55-15.29Q23.33-13.58 24.21-11.65L24.21-11.65L24.21-11.65Q25.10-9.73 25.89-8.01L25.89-8.01L25.89-8.01Q26.68-6.30 26.78-6.10L26.78-6.10L31.78-17.05L31.78-17.05Q31.98-17.53 32.13-17.80L32.13-17.80L32.13-17.80Q32.58-18.48 33.23-18.48L33.23-18.48L33.23-18.48Q33.88-18.48 34.70-18.05Z" fill="url(#editing-glowing-gradient)"></path></g></g><style>text {
  font-size: 64px;
  font-family: Arial Black;
  dominant-baseline: central;
  text-anchor: middle;
}</style></svg>