<svg width="158.9px" height="62px" xmlns="http://www.w3.org/2000/svg" viewBox="170.55 44 158.9 62" style="background: none;" preserveAspectRatio="xMidYMid"><defs><linearGradient id="editing-glowing-gradient" x1="0.06269014643030213" x2="0.9373098535696979" y1="0.2575951898768315" y2="0.7424048101231685"><stop offset="0" stop-color="#f5f4fa"></stop><stop offset="1" stop-color="#f5f4fa"></stop></linearGradient><filter id="editing-glowing" x="-100%" y="-100%" width="300%" height="300%"><feGaussianBlur in="SourceGraphic" result="blur" stdDeviation="1"></feGaussianBlur><feMerge><feMergeNode in="blur"></feMergeNode><feMergeNode in="SourceGraphic"></feMergeNode></feMerge></filter></defs><g filter="url(#editing-glowing)"><g transform="translate(198.73501586914062, 84.46499824523926)"><path d="M15.03-3.10L15.03-3.10L15.03-3.10Q15.40-2.20 15.40-1.80L15.40-1.80L15.40-1.80Q15.40-0.85 13.85-0.20L13.85-0.20L13.85-0.20Q13.05 0.15 12.56 0.15L12.56 0.15L12.56 0.15Q12.08 0.15 11.76-0.09L11.76-0.09L11.76-0.09Q11.45-0.33 11.30-0.58L11.30-0.58L11.30-0.58Q11.05-1.05 9.35-5.10L9.35-5.10L8.58-5.05L5.43-5.05L5.43-2.23L5.43-2.23Q5.43-1.65 5.39-1.36L5.39-1.36L5.39-1.36Q5.35-1.07 5.15-0.70L5.15-0.70L5.15-0.70Q4.80-0.03 3.20-0.03L3.20-0.03L3.20-0.03Q1.45-0.03 1.15-0.95L1.15-0.95L1.15-0.95Q1-1.38 1-2.25L1-2.25L1-16.13L1-16.13Q1-16.70 1.04-16.99L1.04-16.99L1.04-16.99Q1.07-17.28 1.28-17.65L1.28-17.65L1.28-17.65Q1.63-18.32 3.23-18.32L3.23-18.32L8.63-18.32L8.63-18.32Q10.83-18.32 12.90-16.73L12.90-16.73L12.90-16.73Q13.90-15.95 14.55-14.63L14.55-14.63L14.55-14.63Q15.20-13.30 15.20-11.68L15.20-11.68L15.20-11.68Q15.20-8.85 13.33-7.03L13.33-7.03L13.33-7.03Q13.88-5.70 15.03-3.10ZM5.43-13.90L5.43-9.47L8.63-9.47L8.63-9.47Q9.35-9.47 10.08-10.03L10.08-10.03L10.08-10.03Q10.80-10.58 10.80-11.68L10.80-11.68L10.80-11.68Q10.80-12.78 10.08-13.34L10.08-13.34L10.08-13.34Q9.35-13.90 8.58-13.90L8.58-13.90L5.43-13.90ZM21.20-6.95L21.20-4.42L28.90-4.42L28.90-4.42Q29.48-4.42 29.76-4.39L29.76-4.39L29.76-4.39Q30.05-4.35 30.43-4.15L30.43-4.15L30.43-4.15Q31.10-3.80 31.10-2.20L31.10-2.20L31.10-2.20Q31.10-0.45 30.18-0.15L30.18-0.15L30.18-0.15Q29.75 0 28.88 0L28.88 0L18.98 0L18.98 0Q17.23 0 16.93-0.95L16.93-0.95L16.93-0.95Q16.77-1.35 16.77-2.23L16.77-2.23L16.77-16.13L16.77-16.13Q16.77-17.40 17.25-17.86L17.25-17.86L17.25-17.86Q17.73-18.32 19.05-18.32L19.05-18.32L28.90-18.32L28.90-18.32Q29.48-18.32 29.76-18.29L29.76-18.29L29.76-18.29Q30.05-18.25 30.43-18.05L30.43-18.05L30.43-18.05Q31.10-17.70 31.10-16.10L31.10-16.10L31.10-16.10Q31.10-14.35 30.18-14.05L30.18-14.05L30.18-14.05Q29.75-13.90 28.88-13.90L28.88-13.90L21.20-13.90L21.20-11.38L26.15-11.38L26.15-11.38Q26.73-11.38 27.01-11.34L27.01-11.34L27.01-11.34Q27.30-11.30 27.68-11.10L27.68-11.10L27.68-11.10Q28.35-10.75 28.35-9.15L28.35-9.15L28.35-9.15Q28.35-7.40 27.40-7.10L27.40-7.10L27.40-7.10Q26.98-6.95 26.10-6.95L26.10-6.95L21.20-6.95ZM33.23-2.30L33-2.58L33-2.58Q32.35-3.38 32.35-4.01L32.35-4.01L32.35-4.01Q32.35-4.65 33.43-5.70L33.43-5.70L33.43-5.70Q34.05-6.30 34.75-6.30L34.75-6.30L34.75-6.30Q35.45-6.30 36.70-5.05L36.70-5.05L36.70-5.05Q37.05-4.63 37.70-4.24L37.70-4.24L37.70-4.24Q38.35-3.85 38.90-3.85L38.90-3.85L38.90-3.85Q41.23-3.85 41.23-5.75L41.23-5.75L41.23-5.75Q41.23-6.33 40.59-6.71L40.59-6.71L40.59-6.71Q39.95-7.10 39-7.28L39-7.28L39-7.28Q38.05-7.45 36.95-7.84L36.95-7.84L36.95-7.84Q35.85-8.22 34.90-8.75L34.90-8.75L34.90-8.75Q33.95-9.28 33.31-10.41L33.31-10.41L33.31-10.41Q32.68-11.55 32.68-13.15L32.68-13.15L32.68-13.15Q32.68-15.35 34.31-16.99L34.31-16.99L34.31-16.99Q35.95-18.63 38.78-18.63L38.78-18.63L38.78-18.63Q40.28-18.63 41.51-18.24L41.51-18.24L41.51-18.24Q42.75-17.85 43.23-17.45L43.23-17.45L43.85-16.98L43.85-16.98Q44.63-16.25 44.63-15.75L44.63-15.75L44.63-15.75Q44.63-15.25 44.03-14.38L44.03-14.38L44.03-14.38Q43.18-13.13 42.28-13.13L42.28-13.13L42.28-13.13Q41.75-13.13 40.98-13.63L40.98-13.63L40.98-13.63Q40.90-13.68 40.69-13.88L40.69-13.88L40.69-13.88Q40.48-14.08 40.30-14.20L40.30-14.20L40.30-14.20Q39.78-14.53 38.96-14.53L38.96-14.53L38.96-14.53Q38.15-14.53 37.61-14.14L37.61-14.14L37.61-14.14Q37.08-13.75 37.08-13.06L37.08-13.06L37.08-13.06Q37.08-12.38 37.71-11.95L37.71-11.95L37.71-11.95Q38.35-11.53 39.30-11.38L39.30-11.38L39.30-11.38Q40.25-11.23 41.38-10.91L41.38-10.91L41.38-10.91Q42.50-10.60 43.45-10.15L43.45-10.15L43.45-10.15Q44.40-9.70 45.04-8.59L45.04-8.59L45.04-8.59Q45.68-7.48 45.68-5.85L45.68-5.85L45.68-5.85Q45.68-4.23 45.03-2.99L45.03-2.99L45.03-2.99Q44.38-1.75 43.33-1.07L43.33-1.07L43.33-1.07Q41.30 0.25 39 0.25L39 0.25L39 0.25Q37.83 0.25 36.78-0.04L36.78-0.04L36.78-0.04Q35.73-0.33 35.08-0.75L35.08-0.75L35.08-0.75Q33.75-1.55 33.23-2.30L33.23-2.30ZM59.28-17.65L59.28-17.65L59.28-17.65Q59.53-18.05 60.00-18.20L60.00-18.20L60.00-18.20Q60.48-18.35 61.19-18.35L61.19-18.35L61.19-18.35Q61.90-18.35 62.33-18.23L62.33-18.23L62.33-18.23Q62.75-18.10 62.98-17.93L62.98-17.93L62.98-17.93Q63.20-17.75 63.30-17.40L63.30-17.40L63.30-17.40Q63.45-16.98 63.45-16.10L63.45-16.10L63.45-8.55L63.45-8.55Q63.45-5.25 61.40-2.55L61.40-2.55L61.40-2.55Q60.40-1.28 58.83-0.49L58.83-0.49L58.83-0.49Q57.25 0.30 55.34 0.30L55.34 0.30L55.34 0.30Q53.43 0.30 51.86-0.50L51.86-0.50L51.86-0.50Q50.30-1.30 49.33-2.60L49.33-2.60L49.33-2.60Q47.30-5.25 47.30-8.60L47.30-8.60L47.30-16.13L47.30-16.13Q47.30-16.73 47.34-17.01L47.34-17.01L47.34-17.01Q47.38-17.30 47.58-17.68L47.58-17.68L47.58-17.68Q47.78-18.05 48.25-18.20L48.25-18.20L48.25-18.20Q48.73-18.35 49.53-18.35L49.53-18.35L49.53-18.35Q50.33-18.35 50.80-18.20L50.80-18.20L50.80-18.20Q51.28-18.05 51.45-17.68L51.45-17.68L51.45-17.68Q51.75-17.10 51.75-16.10L51.75-16.10L51.75-8.60L51.75-8.60Q51.75-7.08 52.50-5.70L52.50-5.70L52.50-5.70Q52.88-5 53.63-4.58L53.63-4.58L53.63-4.58Q54.38-4.15 55.40-4.15L55.40-4.15L55.40-4.15Q57.23-4.15 58.13-5.50L58.13-5.50L58.13-5.50Q59.03-6.85 59.03-8.63L59.03-8.63L59.03-16.28L59.03-16.28Q59.03-17.25 59.28-17.65ZM84.93-17.63L84.93-17.63L84.93-17.63Q85.13-17.25 85.16-16.95L85.16-16.95L85.16-16.95Q85.20-16.65 85.20-16.07L85.20-16.07L85.20-2.20L85.20-2.20Q85.20-0.48 84.25-0.18L84.25-0.18L84.25-0.18Q83.78-0.03 83.05-0.03L83.05-0.03L83.05-0.03Q82.33-0.03 81.90-0.15L81.90-0.15L81.90-0.15Q81.48-0.28 81.25-0.45L81.25-0.45L81.25-0.45Q81.03-0.63 80.90-0.95L80.90-0.95L80.90-0.95Q80.78-1.38 80.78-2.25L80.78-2.25L80.78-10.63L80.78-10.63Q80.15-9.85 78.95-8.16L78.95-8.16L78.95-8.16Q77.75-6.48 77.43-6.05L77.43-6.05L77.43-6.05Q77.10-5.63 76.98-5.46L76.98-5.46L76.98-5.46Q76.85-5.30 76.36-5.01L76.36-5.01L76.36-5.01Q75.88-4.73 75.31-4.73L75.31-4.73L75.31-4.73Q74.75-4.73 74.29-4.99L74.29-4.99L74.29-4.99Q73.83-5.25 73.63-5.50L73.63-5.50L73.42-5.78L73.42-5.78Q72.92-6.40 71.45-8.44L71.45-8.44L71.45-8.44Q69.98-10.48 69.85-10.63L69.85-10.63L69.85-2.20L69.85-2.20Q69.85-1.63 69.81-1.34L69.81-1.34L69.81-1.34Q69.78-1.05 69.58-0.70L69.58-0.70L69.58-0.70Q69.20-0.03 67.63-0.03L67.63-0.03L67.63-0.03Q66.10-0.03 65.73-0.70L65.73-0.70L65.73-0.70Q65.53-1.05 65.49-1.35L65.49-1.35L65.49-1.35Q65.45-1.65 65.45-2.25L65.45-2.25L65.45-16.13L65.45-16.13Q65.45-16.70 65.49-16.99L65.49-16.99L65.49-16.99Q65.53-17.28 65.73-17.65L65.73-17.65L65.73-17.65Q66.10-18.30 67.67-18.30L67.67-18.30L67.67-18.30Q68.35-18.30 68.84-18.14L68.84-18.14L68.84-18.14Q69.33-17.98 69.48-17.80L69.48-17.80L69.63-17.65L75.30-10.20L75.30-10.20Q79.55-15.83 80.98-17.63L80.98-17.63L80.98-17.63Q81.40-18.30 82.99-18.30L82.99-18.30L82.99-18.30Q84.58-18.30 84.93-17.63ZM91.63-6.95L91.63-4.42L99.33-4.42L99.33-4.42Q99.90-4.42 100.19-4.39L100.19-4.39L100.19-4.39Q100.48-4.35 100.85-4.15L100.85-4.15L100.85-4.15Q101.53-3.80 101.53-2.20L101.53-2.20L101.53-2.20Q101.53-0.45 100.60-0.15L100.60-0.15L100.60-0.15Q100.18 0 99.30 0L99.30 0L89.40 0L89.40 0Q87.65 0 87.35-0.95L87.35-0.95L87.35-0.95Q87.20-1.35 87.20-2.23L87.20-2.23L87.20-16.13L87.20-16.13Q87.20-17.40 87.67-17.86L87.67-17.86L87.67-17.86Q88.15-18.32 89.48-18.32L89.48-18.32L99.33-18.32L99.33-18.32Q99.90-18.32 100.19-18.29L100.19-18.29L100.19-18.29Q100.48-18.25 100.85-18.05L100.85-18.05L100.85-18.05Q101.53-17.70 101.53-16.10L101.53-16.10L101.53-16.10Q101.53-14.35 100.60-14.05L100.60-14.05L100.60-14.05Q100.18-13.90 99.30-13.90L99.30-13.90L91.63-13.90L91.63-11.38L96.58-11.38L96.58-11.38Q97.15-11.38 97.44-11.34L97.44-11.34L97.44-11.34Q97.73-11.30 98.10-11.10L98.10-11.10L98.10-11.10Q98.78-10.75 98.78-9.15L98.78-9.15L98.78-9.15Q98.78-7.40 97.83-7.10L97.83-7.10L97.83-7.10Q97.40-6.95 96.53-6.95L96.53-6.95L91.63-6.95Z" fill="url(#editing-glowing-gradient)"></path></g></g><style>text {
  font-size: 64px;
  font-family: Arial Black;
  dominant-baseline: central;
  text-anchor: middle;
}</style></svg>